<?xml version="1.0" encoding="UTF-8"?>
<svg id="Layer_1" data-name="Layer 1" xmlns="http://www.w3.org/2000/svg" viewBox="0 0 297.64 145.46">
  <defs>
    <style>
      .cls-1 {
        fill: #0a0203;
      }
    </style>
  </defs>
  <g>
    <path class="cls-1" d="m59.33,53.22c.56,0,1.74.01,3.04.41V13.55h172.82v43.59c1.52-1.11,3.21-2.01,5.02-2.67V8.52H57.34v44.85c.68-.09,1.35-.15,1.99-.15Z"/>
    <path class="cls-1" d="m235.19,86.05v45.68H62.37v-44.93c-1.48.68-3.14,1.09-5.02,1.13v48.82h182.87v-49.1c-1.82-.29-3.51-.83-5.02-1.6Z"/>
  </g>
  <path class="cls-1" d="m73.06,57.81c-1.14,0-2.7.02-4,.19l-.1.1c1.73.71.43,6.95-.38,10.21-1.75,7.04-5.01,12.98-7.45,12.98-1.25,0-1.63-1.56-1.21-4.09l2.51-15.17c.52-3.21-.43-4.21-3.12-4.21-2.27,0-5.58,1.04-7.23,1.84l.07.07c1.54-.59,2.24-.07,2.01,1.3l-2.36,14.18c-.54,3.21-.52,8.13,5.18,8.13,4.26,0,8.58-2.77,11.77-14.94l.14.05-1.51,7.23c-1.25,5.96,2.18,7.61,6.19,7.61,1.13,0,2.27-.1,3.36-.33l.07-.09c-2.43.07-1.63-6.15-.9-10.21l1.32-7.42c1.04-5.84-.64-7.42-4.37-7.42Zm27.14-.38c-4.3,0-7.94,3.12-11.18,15.32l-.14-.05,2.53-10.68c.73-3.17-.52-4.21-3.22-4.21-2.27,0-5.58,1.04-7.23,1.84l.07.07c1.54-.59,2.25-.07,2.01,1.3l-2.65,14.89c-1.04,5.84,1.54,7.42,5.27,7.42,1.32,0,1.91-.12,3.17-.38l.1-.09c-1.73-.71-.35-6.76.38-10.02,1.61-7.11,5.06-14.04,7.99-14.04,1.39,0,1.87,1.35,1.87,2.43,0,2.39-1.75,3.85-3.5,3.85-.28,2.84,1.75,4.16,3.88,4.16,4.21,0,6.57-3.17,6.57-6.33,0-2.84-1.94-5.48-5.91-5.48Zm29.76,2.46c-2.41,0-5.58-2.08-9.36-2.08-7.94,0-14.96,9.22-14.96,16.74,0,4.35,1.75,8.74,6.71,8.74,4.25,0,7.89-3.17,10.87-14.94l.1.02-3.31,17.66c-.87,4.7-2.01,7.4-5.65,7.4-2.81,0-3.66-1.63-3.66-2.93s.8-2.51,2.65-2.72c.28-2.55-1.84-3.92-3.78-3.92-2.7,0-4.82,1.94-4.82,4.58,0,4.3,5.44,5.15,9.36,5.15,8.98,0,13.87-4.49,14.89-10.97l3.88-24.63c-.78,1.42-1.75,1.89-2.91,1.89Zm-6.14,3.9l-.52,2.88c-1.23,6.95-4.35,14.33-7.23,14.33-1.23,0-1.87-2.06-1.87-4,0-7.59,3.19-18.91,7.85-18.91,2.51,0,2.22,3.24,1.77,5.7Zm26.36-5.98c-8.98,0-15.88,7.28-15.88,15.36,0,6.33,4.07,10.12,9.79,10.12s10.49-3.5,13.47-8.42l-.12-.07c-2.22,2.72-5.01,3.64-7.18,3.64-4.94,0-7.04-4.21-7.04-8.86s2.48-11.6,6.66-11.6c1.87,0,2.63,1.44,2.63,3.28,0,3.36-1.91,7.37-8.77,6.52l-.02.05c11.63,3.07,15.55-1.23,15.55-4.73,0-4.4-5.39-5.29-9.08-5.29Zm30.31-.38c-4.3,0-7.94,3.12-11.18,15.32l-.14-.05,2.53-10.68c.73-3.17-.52-4.21-3.22-4.21-2.27,0-5.58,1.04-7.23,1.84l.07.07c1.54-.59,2.25-.07,2.01,1.3l-2.65,14.89c-1.04,5.84,1.54,7.42,5.27,7.42,1.32,0,1.91-.12,3.17-.38l.1-.09c-1.73-.71-.35-6.76.38-10.02,1.61-7.11,5.06-14.04,7.99-14.04,1.39,0,1.87,1.35,1.87,2.43,0,2.39-1.75,3.85-3.5,3.85-.28,2.84,1.75,4.16,3.88,4.16,4.21,0,6.57-3.17,6.57-6.33,0-2.84-1.94-5.48-5.91-5.48Zm49.3-1.13c0-4.44-5.39-6.48-10.64-6.48-.85,0-4.58.16-8.87,1.62-.52.18-1.04.38-1.55.62-2.33,1.07-5,.73-6.05-1.54-.94-2.01.25-3.4,1.57-4.02,1.16-.54,2.62-.54,4.06.2,3.96-4.6-2.23-9.39-7.24-7.06-3.17,1.47-5.23,5.35-3.48,9.12,1.68,3.61,5.72,5.24,9.91,3.94-2.03,1.21-3.67,3.01-4.09,5.67l-1.01,6.46h-12.78c3.19-2.84,6.39-7.12,6.39-10.89,0-3.05-1.82-4.4-3.85-4.4-2.67,0-5.67,2.31-5.29,6.07,4.26.98,5.15,5.66,2.25,9.21h-1.3c-.28,0-.51.23-.51.51v17.09c0,.28.23.51.51.51h6.8s10.05,0,10.05,0c.04,0,.08,0,.12,0h.12s.02,0,.03,0c3.64-.12,4.45-2.51,4.64-3.77l3.48-22.21c.8-5.1,2.22-6.62,4.11-6.62,2.27,0,3.55,1.99,3.55,4.58,0,5.29-1.75,9.74-7.52,9.74l-.05.12c4.73,0,6.33,3.62,6.33,7.02,0,4.92-2.86,14.75-13.97,12.48l-.02.1c14.94,3.78,23.87-2.93,23.87-10.26,0-7.89-9.45-9.31-14.09-9.41l.05-.05c5.67-.24,14.47-1.37,14.47-8.37Zm-27.63,23.06c0,.18-.15.33-.33.33h-10.93c-.18,0-.33-.15-.33-.33v-10.93c0-.18.15-.33.33-.33h10.93s.04.02.06.03c.07.02.13.05.18.1.05.06.08.12.08.2v10.93Zm45.09-21.55c-8.49,0-15.51,6.64-15.51,14.84,0,6.24,4.73,10.64,11.46,10.64,8.46,0,15.53-6.97,15.53-14.84,0-6.26-4.7-10.64-11.49-10.64Zm-4.02,25.31c-2.08,0-2.86-2.03-2.86-4.82,0-5.08,1.65-20.33,6.85-20.33,2.22,0,2.88,2.08,2.88,4.89,0,5.55-1.66,20.26-6.88,20.26Zm38.3-20.21c-.19,2.08,1.47,3.69,3.55,3.69s4.07-1.51,4.07-4.35c0-3.45-3.07-4.44-5.34-4.44-5.18,0-6.33,5.15-6.55,9.38l-1.54-3.99c-1.32-3.45-2.98-5.39-6.76-5.39-2.55,0-5.06.8-7.19,2.13l.07.07c2.46-1.58,4.18,2.39,4.8,4.18l3.19,9.15c-.1,3.07-.31,6.93-2.65,8.74-.59.47-1.28.69-1.91.69-1.2,0-2.22-.78-2.22-2.22,0-1.66,1.28-2.74,3.12-2.84.19-2.41-1.7-4.07-3.92-4.07s-4.44,1.56-4.44,4.49c0,3.55,2.98,5.15,5.91,5.15,5.74,0,6.12-5.39,6.26-9.5l.59,1.65c2.22,6.43,6.62,8.04,10.94,8.04,1.63,0,3.26-.24,4.75-.52l.1-.09c-2.72-.12-4.21-3.03-7-10.21l-1.96-5.08c.09-3.21.87-7.3,3.43-8.79,1.68-.97,3.57-.54,3.57,1.51,0,1.54-1.04,2.69-2.86,2.62Zm-232.11-6.62c0-4.44-5.39-6.48-10.64-6.48-.85,0-1.7.14-2.51.28.9-.28,2.79-1.14,2.79-2.93s-1.32-2.55-2.6-2.55c-1.7,0-3.26,1.66-2.18,3.69,1.32-.8,2.13-.05,2.13.71,0,.57-.47,1.18-1.51,1.18-5.63,0-11.35-4.73-17.35-4.73-5.11,0-8.75,3.45-8.75,7.85,0,4.16,3.5,6.81,7,6.81,5.53,0,9.12-6.95,3.59-9.46-.99,1.28-2.32,1.89-3.59,1.89-1.47,0-3.12-.76-3.12-2.98,0-2.51,2.29-3.95,4.87-3.95,3.03,0,5.98,1.2,8.89,2.39,2.86,1.18,5.89,2.46,8.98,2.34v.05c-3.74.19-11.42,1.72-12.39,7.97l-1.01,6.45c1.55-.79,3.35-1.22,5.27-1.22,1.43,0,2.88.24,4.22.69.71-4.5,1.16-7.34,1.16-7.34.8-5.1,2.22-6.62,4.11-6.62,2.27,0,3.55,1.99,3.55,4.58,0,5.29-1.75,9.74-7.52,9.74l-.05.12c4.73,0,6.33,3.62,6.33,7.02,0,.27-.01.55-.03.85-.09,1.06-.23,1.97-.41,2.78-.05.21-.1.42-.16.63-.02.07-.04.14-.06.21-.03.1-.06.21-.09.31-1.02,3.06-2.98,3.98-6.07,3.98h-7.76c-3.97,0-5.73-2.33-5.73-6.16,0-5.46,3.41-9.36,7.8-9.36,3.22,0,5.78,1.72,6.9,4.68.68,1.78-.28,3.95-2.88,3.95h-10.45c-.94,3.17,1.39,5.56,4.35,5.56h7.71c3.73,0,5.38-1.94,5.38-6.39,0-5.25-5.38-8.21-10.48-8.21-5.77,0-10.48,3.8-10.48,9.88,0,6.81,4.38,10.96,12.44,10.96h4.59c.07,0,.13,0,.2,0,9.59-.22,15.09-5.59,15.09-11.34,0-7.89-9.46-9.31-14.09-9.41l.05-.05c5.67-.24,14.46-1.37,14.46-8.37Zm-25.58,12.15c.15-.15.54-.83.39-.97-.15-.15-.8.29-.95.44-.15.15-.14.4.02.55.15.15.4.14.55-.02Zm-2.06,3.23c.18-.12.7-.7.58-.87-.12-.17-.85.12-1.02.24-.17.12-.22.36-.1.54.12.17.36.22.54.1Zm3.89-1.09c.03-.21-.04-.99-.26-1.02-.21-.03-.48.71-.51.92s.12.41.33.43c.21.03.41-.12.43-.33Zm1.89-3.68c-.16.15.24.82.39.97s.39.16.55.02c.16-.15.16-.39.02-.55-.15-.16-.79-.59-.95-.45Zm.58,3.73c-.19.1.04.85.14,1.04.1.19.34.25.53.15.19-.1.25-.34.15-.53s-.63-.77-.81-.66Zm3.6.1c.2-.08.29-.31.2-.51-.08-.2-.55-.83-.74-.74s-.05.85.03,1.05c.08.2.31.29.51.2Z"/>
  <g>
    <path class="cls-1" d="m76.25,119.56c.31.36.46.83.46,1.4,0,.73-.27,1.3-.82,1.7s-1.35.59-2.41.59h-3.95v-8.58h3.7c.96,0,1.7.19,2.23.58.53.38.79.93.79,1.63,0,.47-.12.88-.35,1.21-.23.33-.55.58-.96.74.56.12,1,.37,1.31.73Zm-5.8-4.14v3.11h2.73c.69,0,1.23-.13,1.61-.4s.56-.65.56-1.16-.19-.89-.56-1.16-.91-.4-1.61-.4h-2.73Zm4.77,6.69c.39-.26.59-.67.59-1.23,0-1.07-.78-1.61-2.33-1.61h-3.03v3.22h3.03c.77,0,1.35-.13,1.74-.39Z"/>
    <path class="cls-1" d="m87.3,122.47v.78h-6.07v-8.58h5.88v.79h-4.98v3.05h4.44v.77h-4.44v3.19h5.16Z"/>
    <path class="cls-1" d="m94.72,120.29v2.97h-.9v-2.97l-3.43-5.61h.97l2.94,4.82,2.94-4.82h.91l-3.43,5.61Z"/>
    <path class="cls-1" d="m103.08,122.76c-.69-.38-1.23-.9-1.62-1.56s-.58-1.41-.58-2.23.19-1.57.58-2.23c.39-.66.93-1.18,1.62-1.56.69-.38,1.46-.57,2.31-.57s1.62.19,2.3.56c.68.38,1.22.9,1.61,1.56s.59,1.41.59,2.24-.2,1.57-.59,2.24-.93,1.19-1.61,1.56c-.68.38-1.45.56-2.3.56s-1.62-.19-2.31-.57Zm4.15-.7c.55-.31.98-.73,1.29-1.27.31-.54.47-1.15.47-1.82s-.16-1.28-.47-1.82c-.31-.54-.74-.97-1.29-1.28s-1.16-.46-1.84-.46-1.29.15-1.84.46c-.55.31-.98.73-1.3,1.28-.31.54-.47,1.15-.47,1.82s.16,1.28.47,1.82c.31.54.75.97,1.3,1.27.55.31,1.17.46,1.84.46s1.29-.15,1.84-.46Z"/>
    <path class="cls-1" d="m121.55,114.67v8.58h-.75l-5.52-6.96v6.96h-.91v-8.58h.75l5.53,6.96v-6.96h.9Z"/>
    <path class="cls-1" d="m126.79,114.67h3.49c.91,0,1.71.18,2.4.54.69.36,1.23.87,1.62,1.52.38.65.58,1.39.58,2.23s-.19,1.57-.58,2.22c-.38.65-.92,1.16-1.62,1.52-.69.36-1.5.54-2.4.54h-3.49v-8.58Zm3.44,7.8c.75,0,1.41-.15,1.97-.45s1-.71,1.31-1.24c.31-.53.47-1.13.47-1.82s-.16-1.29-.47-1.82c-.31-.53-.75-.94-1.31-1.24-.56-.3-1.22-.45-1.97-.45h-2.54v7.01h2.54Z"/>
    <path class="cls-1" d="m150.41,120.96h-4.78l-1.03,2.29h-.94l3.92-8.58h.9l3.92,8.58h-.96l-1.03-2.29Zm-.33-.74l-2.06-4.61-2.06,4.61h4.12Z"/>
    <path class="cls-1" d="m168.65,119.56c.31.36.46.83.46,1.4,0,.73-.27,1.3-.82,1.7-.54.4-1.35.59-2.41.59h-3.95v-8.58h3.7c.96,0,1.7.19,2.22.58.53.38.79.93.79,1.63,0,.47-.12.88-.35,1.21-.23.33-.55.58-.96.74.56.12,1,.37,1.31.73Zm-5.8-4.14v3.11h2.73c.69,0,1.23-.13,1.61-.4s.56-.65.56-1.16-.19-.89-.56-1.16-.91-.4-1.61-.4h-2.73Zm4.77,6.69c.39-.26.59-.67.59-1.23,0-1.07-.78-1.61-2.33-1.61h-3.03v3.22h3.03c.77,0,1.35-.13,1.74-.39Z"/>
    <path class="cls-1" d="m174.49,122.37c-.62-.64-.93-1.57-.93-2.78v-4.92h.91v4.88c0,1,.23,1.74.67,2.23s1.1.74,1.95.74,1.51-.25,1.96-.74.67-1.23.67-2.23v-4.88h.88v4.92c0,1.22-.31,2.14-.93,2.78s-1.48.96-2.59.96-1.98-.32-2.6-.96Z"/>
    <path class="cls-1" d="m191.65,123.25l-1.96-2.76c-.22.03-.45.04-.69.04h-2.3v2.72h-.91v-8.58h3.21c1.09,0,1.95.26,2.57.79.62.52.93,1.24.93,2.16,0,.67-.17,1.24-.51,1.7-.34.46-.82.79-1.45,1l2.1,2.94h-.99Zm-.72-4.06c.45-.38.67-.9.67-1.58s-.23-1.23-.67-1.6c-.45-.37-1.1-.56-1.95-.56h-2.28v4.3h2.28c.85,0,1.5-.19,1.95-.56Z"/>
    <path class="cls-1" d="m203.15,118.96h.87v3.27c-.4.35-.87.62-1.42.81-.55.19-1.12.28-1.73.28-.86,0-1.63-.19-2.32-.56-.69-.38-1.23-.9-1.62-1.56-.39-.67-.59-1.41-.59-2.24s.2-1.57.59-2.24c.39-.67.93-1.19,1.62-1.56.69-.38,1.46-.56,2.33-.56.65,0,1.25.1,1.8.31s1.01.52,1.38.92l-.56.58c-.68-.67-1.54-1-2.59-1-.7,0-1.32.15-1.88.46s-1,.73-1.32,1.28c-.32.54-.48,1.15-.48,1.82s.16,1.27.48,1.81c.32.54.75.96,1.31,1.27.56.31,1.18.47,1.88.47.88,0,1.63-.22,2.24-.66v-2.89Z"/>
    <path class="cls-1" d="m215.1,122.47v.78h-6.07v-8.58h5.88v.79h-4.98v3.05h4.44v.77h-4.44v3.19h5.16Z"/>
    <path class="cls-1" d="m225.54,123.25l-1.96-2.76c-.22.03-.45.04-.69.04h-2.3v2.72h-.91v-8.58h3.21c1.09,0,1.95.26,2.57.79.62.52.93,1.24.93,2.16,0,.67-.17,1.24-.51,1.7-.34.46-.82.79-1.45,1l2.1,2.94h-.99Zm-.72-4.06c.45-.38.67-.9.67-1.58s-.23-1.23-.67-1.6c-.45-.37-1.1-.56-1.95-.56h-2.28v4.3h2.28c.85,0,1.5-.19,1.95-.56Z"/>
  </g>
</svg>